<svg xmlns="http://www.w3.org/2000/svg" viewBox="0 0 200 200">
  <circle cx="100" cy="100" r="95" fill="#4A3728"/>
  <circle cx="100" cy="100" r="80" fill="#FAF7F2"/>
  <!-- Filter coffee cup -->
  <path d="M60 80 L60 140 Q60 155 80 155 L120 155 Q140 155 140 140 L140 80 Z" fill="#6F4E37"/>
  <path d="M140 85 Q155 95 140 110" stroke="#6F4E37" stroke-width="6" fill="none"/>
  <ellipse cx="100" cy="80" rx="40" ry="12" fill="#4A3728"/>
  <!-- Handle -->
  <path d="M140 95 Q160 95 160 115 Q160 135 140 135" stroke="#6F4E37" stroke-width="8" fill="none"/>
  <!-- Steam -->
  <path d="M85 55 Q90 45 85 35" stroke="white" stroke-width="2" fill="none" opacity="0.6"/>
  <path d="M100 50 Q108 38 100 28" stroke="white" stroke-width="2" fill="none" opacity="0.6"/>
  <path d="M115 55 Q120 45 115 35" stroke="white" stroke-width="2" fill="none" opacity="0.6"/>
  <!-- BENNE text -->
  <text x="100" y="185" text-anchor="middle" font-family="Georgia, serif" font-size="18" fill="#4A3728" font-weight="bold">BENNE</text>
</svg>